<?xml version="1.0" encoding="UTF-8"?>
<svg id="Layer_1" xmlns="http://www.w3.org/2000/svg" version="1.1" xmlns:xlink="http://www.w3.org/1999/xlink" viewBox="210 300 195 195">
  <!-- Generator: Adobe Illustrator 29.5.1, SVG Export Plug-In . SVG Version: 2.1.0 Build 141)  -->
  <defs>
    <style>
      .st0 {
        fill: url(#GOLD_BLEND);
      }
    </style>
    <linearGradient id="GOLD_BLEND" data-name="GOLD BLEND" x1="7.6" y1="511.4" x2="489.7" y2="327.3" gradientUnits="userSpaceOnUse">
      <stop offset="0" stop-color="#e0a95f"/>
      <stop offset=".2" stop-color="#bc8848"/>
      <stop offset=".3" stop-color="#bc8848"/>
      <stop offset=".6" stop-color="#edba60"/>
      <stop offset=".8" stop-color="#d4a628"/>
    </linearGradient>
  </defs>
  <path class="st0" d="M307.5,481.2c-11.4,0-22.4-2.2-32.8-6.6-10-4.2-19-10.3-26.8-18.1-7.7-7.7-13.8-16.7-18.1-26.8-4.4-10.4-6.6-21.4-6.6-32.8s2.2-22.4,6.6-32.8c4.2-10,10.3-19,18.1-26.8,7.7-7.7,16.7-13.8,26.8-18.1,10.4-4.4,21.4-6.6,32.8-6.6s22.4,2.2,32.8,6.6c10,4.2,19,10.3,26.8,18.1,7.7,7.7,13.8,16.7,18.1,26.8,4.4,10.4,6.6,21.4,6.6,32.8s-2.2,22.4-6.6,32.8c-4.2,10-10.3,19-18.1,26.8-7.7,7.7-16.7,13.8-26.8,18.1-10.4,4.4-21.4,6.6-32.8,6.6ZM312.5,471l4.1-.5c6.8-.8,13.4-2.6,19.7-5.3,2.2-.9,4.4-2,6.5-3.1l1.9-1v-59.1h-32.2v69ZM270.2,461l1.9,1c2.1,1.1,4.3,2.2,6.5,3.1,6.3,2.7,12.9,4.4,19.7,5.3l4.1.5v-69h-32.2v59.1ZM354.9,454.6l6.3-6.6c6.2-6.5,11.1-14,14.6-22.2,3.9-9.1,5.8-18.8,5.8-28.8s-2-19.7-5.8-28.8c-3.5-8.2-8.4-15.7-14.6-22.2l-6.3-6.6v115.4ZM253.8,345.8c-6.2,6.5-11.1,14-14.6,22.2-3.9,9.1-5.8,18.8-5.8,28.8s2,19.7,5.8,28.8c3.5,8.2,8.4,15.7,14.6,22.2l6.3,6.6v-115.4l-6.3,6.6ZM307.5,322.8c-10,0-19.7,2-28.8,5.8-2.2.9-4.4,2-6.5,3.1l-1.9,1v59.1h74.5v-59.1l-1.9-1c-2.1-1.1-4.3-2.2-6.5-3.1-9.1-3.9-18.8-5.8-28.8-5.8Z"/>
</svg>